# Exported from Wings 3D 1.0.1
mtllib rock.mtl
o cube1
#98 vertices, 96 faces
v -0.51070145 -0.48826920 0.51313666
v -0.47596848 0.55457033 0.43399924
v 0.41839934 0.38944031 0.53524528
v 0.40142833 -0.54992585 0.44832679
v -0.57283606 -0.64873967 -0.65926206
v -0.60371151 0.43120772 -0.65599866
v 0.41087319 0.48765283 -0.61012870
v 0.55178978 -0.50323005 -0.63438724
v -0.60538509 3.9000346e-2 0.62211037
v -7.4388990e-2 -0.67250873 0.53227878
v -0.67728805 -0.71476656 -0.10156656
v -1.1039777e-2 0.65880295 0.61099445
v -0.60755594 0.68150259 -0.10931716
v 0.53842098 -9.8759246e-4 0.62685504
v 0.58282933 0.47519193 -6.4197922e-2
v 0.60858829 -0.71847569 -7.6834516e-2
v -0.66217834 -0.18016073 -0.79512776
v 0.10357476 -0.82358041 -0.86799515
v -6.5411348e-2 0.55108834 -0.77249545
v 0.55303798 0.14701845 -0.73252648
v -4.9286028e-2 5.6586357e-2 0.75772247
v 0.83848685 -6.5522935e-2 4.0694162e-2
v -0.13420079 -0.95838828 -0.18949382
v -4.4964091e-2 0.94080527 -0.14132786
v 3.7841890e-2 -4.2165224e-2 -1.04884377
v -0.80165367 -7.4930540e-2 -7.6554070e-2
v -0.57503640 -0.25725473 0.62408258
v -0.33392397 -0.58663446 0.56641174
v -0.60514742 -0.60727554 0.28293413
v -0.28688379 0.64570986 0.52835621
v -0.55106369 0.64949504 0.20598661
v 0.49051127 0.22551131 0.62658391
v 0.51544308 0.42199480 0.30625513
v 0.50814606 -0.66813566 0.24376738
v -0.66119795 -0.45627048 -0.73914800
v -0.31408697 -0.76157825 -0.78680633
v -0.41011685 0.51497077 -0.74500467
v 0.48458037 0.38004588 -0.69139946
v -0.56400875 0.34248448 0.53616695
v 0.19218895 -0.64091879 0.50323225
v -0.68684014 -0.69956731 -0.43161388
v 0.23522151 0.52688831 0.61852179
v -0.65912857 0.58639737 -0.43661595
v 0.48349122 -0.30969067 0.56115447
v 0.51619264 0.50972752 -0.39518488
v 0.61831905 -0.62256502 -0.39906339
v -0.67654246 0.17266283 -0.75511817
v 0.40389167 -0.67800017 -0.77826858
v 0.22080290 0.54697960 -0.71367654
v 0.58698375 -0.19731818 -0.69821966
v -5.6778486e-2 -0.32992842 0.70045307
v -0.35546710 5.9150065e-2 0.74440697
v -2.7115423e-2 0.38723660 0.75067959
v 0.26036791 3.7015863e-2 0.73509669
v 0.79365351 -0.40830618 6.1134146e-4
v 0.74979944 -5.8850186e-2 0.38332297
v 0.76684465 0.21482077 3.4649576e-3
v 0.74846678 5.0043144e-2 -0.36483769
v -0.45331250 -0.89328061 -0.15575817
v -0.12691374 -0.87135553 0.20660701
v 0.25953483 -0.90097818 -0.15169442
v -1.6098200e-2 -0.96552639 -0.56895534
v 0.29054327 0.75805754 -0.11541613
v -2.1832195e-2 0.86806606 0.27033711
v -0.35864334 0.90082279 -0.13307134
v -6.5906877e-2 0.80279991 -0.49403589
v -2.4228301e-2 0.28270890 -0.96141502
v -0.33794263 -0.13807050 -0.99088686
v 0.10099885 -0.46336084 -1.02283089
v 0.32549922 8.4573375e-2 -0.96162607
v -0.74876331 0.32623715 -8.8735916e-2
v -0.74624977 -9.5694425e-3 0.31779285
v -0.78561518 -0.43195749 -7.7998071e-2
v -0.79518927 -0.14545419 -0.46893888
v -0.33916046 -0.28264842 0.71888701
v -0.31989848 0.37703745 0.69092107
v 0.24825202 0.31393589 0.74337415
v 0.22595790 -0.31633889 0.66725540
v 0.69026403 -0.37779465 0.32401070
v 0.68396973 0.19033882 0.35788802
v 0.67735330 0.30535950 -0.37050679
v 0.74103684 -0.28888061 -0.36425638
v -0.40270300 -0.79108447 0.23903171
v 0.20622804 -0.83151428 0.20640920
v 0.34356899 -0.86216334 -0.49955925
v -0.39356741 -0.89050503 -0.51046300
v 0.26688767 0.68834020 0.28697361
v -0.31085223 0.83986342 0.22663928
v -0.39709668 0.76991266 -0.46961730
v 0.25348108 0.69580626 -0.45279317
v -0.38160847 0.20383487 -0.92123952
v -0.30549042 -0.48532081 -0.94651171
v 0.38606400 -0.31141911 -0.92890568
v 0.25761057 0.35697079 -0.88658527
v -0.69335783 0.34272370 0.25848558
v -0.71825466 -0.33650319 0.31756511
v -0.79391791 -0.45518131 -0.43993961
v -0.77104280 0.24150690 -0.45211040
vt 0.0000000e+0 0.35575020
vt 0.0000000e+0 0.60878931
vt 0.0000000e+0 0.80254685
vt 4.3092813e-3 0.66446807
vt 6.1534230e-3 0.53937453
vt 8.3761421e-3 0.87983271
vt 1.3859273e-2 0.21382944
vt 1.4080337e-2 0.74183665
vt 1.4264692e-2 0.26680141
vt 1.5084805e-2 0.14327253
vt 2.2213180e-2 0.47583730
vt 2.5630241e-2 0.94141779
vt 2.7724511e-2 0.69327254
vt 3.0456037e-2 0.30951856
vt 3.9564256e-2 0.41915384
vt 5.1762148e-2 0.68345562
vt 6.1251483e-2 0.61703730
vt 6.4109068e-2 0.55044082
vt 7.5421447e-2 0.39291521
vt 7.5459260e-2 0.81205246
vt 7.6303063e-2 0.48098530
vt 7.6868966e-2 0.89400201
vt 7.8425692e-2 0.97191307
vt 8.0661602e-2 0.19672598
vt 8.3476233e-2 0.24875296
vt 8.3793126e-2 0.74775025
vt 8.4096617e-2 0.12714005
vt 8.5237151e-2 0.40895307
vt 8.5573065e-2 0.69102254
vt 8.7427939e-2 0.31091338
vt 9.6854825e-2 5.0374565e-2
vt 0.11480861 0.69013032
vt 0.12160619 0.62613013
vt 0.12639845 0.55870179
vt 0.13600538 0.47816435
vt 0.14413231 0.39651388
vt 0.14933388 0.19273290
vt 0.14959266 0.99538231
vt 0.15343859 0.91345080
vt 0.15569844 0.12520562
vt 0.15692047 0.82890292
vt 0.15773587 0.24945951
vt 0.15801607 0.69013032
vt 0.15865752 0.75465054
vt 0.17116972 0.31709319
vt 0.17194255 4.8841024e-2
vt 0.17273778 0.67176974
vt 0.17927014 0.61983880
vt 0.19055891 0.56368417
vt 0.19511142 0.48805588
vt 0.20209541 0.40951663
vt 0.21993362 0.99203131
vt 0.22609573 0.65570067
vt 0.22736522 0.91889698
vt 0.23126310 0.14642210
vt 0.23137211 0.21612109
vt 0.23500469 0.27013710
vt 0.23865364 0.61146959
vt 0.23929261 0.84439351
vt 0.24209594 0.77621690
vt 0.24223833 0.71348729
vt 0.24291887 7.1110227e-2
vt 0.24793650 0.32530900
vt 0.24955305 0.43116014
vt 0.25477966 0.56345534
vt 0.25499951 0.49281562
vt 0.27511871 0.97699646
vt 0.28909295 0.0000000e+0
vt 0.29280830 0.39291521
vt 0.29286920 0.92409849
vt 0.29802187 9.6856211e-2
vt 0.29832528 0.73696886
vt 0.30174342 0.32579403
vt 0.30830949 0.16451868
vt 0.30994215 0.85714473
vt 0.31402645 0.79281351
vt 0.31403357 0.29354134
vt 0.31863191 0.23867885
vt 0.32144927 0.46589388
vt 0.34144328 5.5239484e-2
vt 0.37392884 0.13765566
vt 0.38919922 0.12978243
vt 0.38919922 0.22433859
vt 0.39027325 6.7730626e-2
vt 0.39361134 0.20347635
vt 0.39727070 0.28283395
vt 0.41453560 0.34312644
vt 0.44117613 4.6657514e-2
vt 0.45455400 0.12239923
vt 0.46108473 0.19364129
vt 0.46306097 0.26334489
vt 0.46688670 0.34333751
vt 0.50125276 2.2175520e-2
vt 0.51082418 0.10544399
vt 0.51810773 0.18423504
vt 0.52885499 0.25446488
vt 0.54471485 0.33246711
vt 0.56105894 -2.7755576e-17
vt 0.57780567 8.2817689e-2
vt 0.58990876 0.16870406
vt 0.59777168 0.24118123
vt 0.60754140 0.30851204
vt 0.64106383 0.36614987
vt 0.65593822 0.27955069
vt 0.65729354 6.2935493e-2
vt 0.66824177 0.22263627
vt 0.67529274 0.14644760
vt 0.68801016 0.20635908
vt 0.68801016 0.30500923
vt 0.68801016 0.55045821
vt 0.70702606 0.60168645
vt 0.70829769 0.13443351
vt 0.73285006 0.34383860
vt 0.73451782 6.3705207e-2
vt 0.73861020 0.42982275
vt 0.74472752 0.30788374
vt 0.75337985 0.51806749
vt 0.75629910 9.5348188e-3
vt 0.76667437 0.23593600
vt 0.77010809 0.58031959
vt 0.78035274 0.63785662
vt 0.79064053 0.16170981
vt 0.80407995 0.32013634
vt 0.80412302 0.40278605
vt 0.80565576 8.5677152e-2
vt 0.80915417 9.4344420e-3
vt 0.81586206 0.48828551
vt 0.82016315 0.32013634
vt 0.83068629 0.55736042
vt 0.84530497 0.62730101
vt 0.84640287 0.24970700
vt 0.86957891 9.4692912e-3
vt 0.87192562 0.17379155
vt 0.87460689 9.1594243e-2
vt 0.88828017 0.39712844
vt 0.89311073 0.46873447
vt 0.89770712 0.33004879
vt 0.90557086 0.53997218
vt 0.91581364 0.30646974
vt 0.92145586 0.61536723
vt 0.92438505 0.23973488
vt 0.93010186 0.0000000e+0
vt 0.93348256 8.3989247e-2
vt 0.93759497 0.16832225
vt 0.96407031 0.34826670
vt 0.97042198 0.60057520
vt 0.97293497 0.45898245
vt 0.97590738 0.39705879
vt 0.97692004 4.6763610e-3
vt 0.97830632 0.53715826
vt 0.97991157 0.28247308
vt 0.98949627 6.5427804e-2
vt 0.99745257 0.15406949
vt 1.00000000 0.22872843
vn -0.58045065 -0.52309527 0.62405799
vn -0.64013336 0.55902150 0.52699549
vn 0.65373890 0.58208353 0.48353306
vn 0.45467304 -0.58559893 0.67107848
vn -0.63407892 -0.54469416 -0.54886446
vn -0.64757768 0.47553693 -0.59540555
vn 0.58500309 0.67416424 -0.45085914
vn 0.82105376 -0.34136841 -0.45753507
vn -0.72001146 8.5073929e-2 0.68872775
vn 1.4029468e-2 -0.66922062 0.74293131
vn -0.78122769 -0.60933406 0.13562931
vn 5.6614914e-2 0.69155185 0.72010471
vn -0.80629696 0.58923994 5.1783326e-2
vn 0.58630366 -6.2565124e-2 0.80767173
vn 0.74105181 0.66935791 5.2935819e-2
vn 0.70839267 -0.70134292 7.9359568e-2
vn -0.76182069 -2.4484535e-2 -0.64732507
vn 0.11713318 -0.69079229 -0.71350251
vn 1.3288493e-2 0.67741165 -0.73548411
vn 0.79527615 0.16697467 -0.58279954
vn 4.7134863e-3 -4.6377953e-2 0.99891284
vn 0.99680248 6.7767511e-2 4.2336430e-2
vn -2.0941863e-2 -0.99390152 0.10826449
vn 0.17756610 0.98062326 -8.2754425e-2
vn 3.8130872e-2 9.3589202e-2 -0.99488044
vn -0.99631173 3.9692390e-2 7.6075259e-2
vn -0.66230092 -0.26730495 0.69993253
vn -0.29788639 -0.62209904 0.72405558
vn -0.70854891 -0.57493610 0.40915392
vn -0.39225324 0.64787026 0.65299427
vn -0.74103117 0.59076695 0.31916643
vn 0.65046737 0.35125943 0.67343078
vn 0.70968690 0.63639691 0.30223083
vn 0.55922216 -0.69544205 0.45125483
vn -0.71855981 -0.29647375 -0.62910660
vn -0.38658062 -0.63674702 -0.66716463
vn -0.33798378 0.58938576 -0.73375159
vn 0.69143286 0.48732896 -0.53332080
vn -0.70509284 0.37512821 0.60176649
vn 0.26542842 -0.64876426 0.71319892
vn -0.75500181 -0.61025693 -0.23991405
vn 0.48428795 0.62753358 0.60964480
vn -0.78036704 0.54976550 -0.29796841
vn 0.51179269 -0.37855273 0.77121078
vn 0.69358612 0.67698418 -0.24623306
vn 0.80777103 -0.52449860 -0.26908582
vn -0.74421522 0.23286432 -0.62603348
vn 0.63784973 -0.52361151 -0.56478201
vn 0.34818993 0.71677165 -0.60415411
vn 0.83431727 -0.10087259 -0.54197731
vn 5.1956102e-2 -0.29902566 0.95282959
vn -0.26506695 4.5186312e-2 0.96317065
vn -3.0475031e-2 0.27630725 0.96058606
vn 0.22807484 -9.4478531e-2 0.96904885
vn 0.94636881 -0.31811252 5.6484486e-2
vn 0.88419301 1.0100426e-2 0.46701252
vn 0.89608081 0.43993618 5.9121316e-2
vn 0.94292481 0.11964235 -0.31077082
vn -0.40896232 -0.90571002 0.11153111
vn -3.7767796e-2 -0.92066596 0.38851998
vn 0.33971682 -0.93517833 0.10016968
vn 4.7277739e-2 -0.97234920 -0.22869597
vn 0.57741492 0.81622194 -1.9332783e-2
vn 0.16697167 0.92197387 0.34940614
vn -0.39995283 0.91569811 -3.9175274e-2
vn 0.10512921 0.86252868 -0.49496678
vn -1.8659224e-2 0.41996840 -0.90734689
vn -0.34454272 4.8274583e-3 -0.93875823
vn 0.10668903 -0.23874161 -0.96520459
vn 0.47454751 0.16541266 -0.86454804
vn -0.96504479 0.25053246 7.6954770e-2
vn -0.95628619 5.5917938e-2 0.28703641
vn -0.96912736 -0.21708620 0.11690055
vn -0.98260014 1.2946036e-2 -0.18528184
vn -0.22084888 -0.27712277 0.93510895
vn -0.35862523 0.34995098 0.86540294
vn 0.32118167 0.26597501 0.90890023
vn 0.24247161 -0.33637247 0.90997861
vn 0.77521117 -0.39542967 0.49262869
vn 0.82187105 0.43019220 0.37344697
vn 0.86135535 0.43946280 -0.25483210
vn 0.93140020 -0.17482427 -0.31926499
vn -0.38208682 -0.82472725 0.41693481
vn 0.27012086 -0.87943668 0.39195134
vn 0.50694597 -0.83855582 -0.19957434
vn -0.41240861 -0.86895583 -0.27355971
vn 0.57796749 0.76045811 0.29606932
vn -0.39187400 0.84558383 0.36252275
vn -0.36728834 0.80557054 -0.46492513
vn 0.47555429 0.79969931 -0.36650938
vn -0.34768905 0.31247028 -0.88401055
vn -0.34736376 -0.30061974 -0.88823769
vn 0.58954027 -0.13934287 -0.79562921
vn 0.35386684 0.50228546 -0.78897882
vn -0.90697266 0.31577693 0.27872123
vn -0.90644928 -0.24164872 0.34634607
vn -0.95079437 -0.23613411 -0.20057604
vn -0.96001955 0.20917313 -0.18603513
g cube1_cube1_auv
usemtl cube1_auv
f 1/15/1 28/28/28 75/21/75 27/11/27
f 1/149/1 29/152/29 83/143/83 28/142/28
f 2/4/2 39/2/39 76/17/76 30/16/30
f 3/53/3 42/47/42 77/48/77 32/58/32
f 4/118/4 40/126/40 84/125/84 34/114/34
f 4/64/4 44/66/44 78/50/78 40/51/40
f 5/13/5 41/29/41 97/26/97 35/8/35
f 6/87/6 43/86/43 89/91/89 37/92/37
f 6/12/6 47/6/47 98/22/98 43/23/43
f 7/73/7 45/63/45 81/57/81 38/77/38
f 7/104/7 49/102/49 90/101/90 45/106/45
f 8/71/8 50/74/50 82/55/82 46/62/46
f 9/5/9 27/11/27 75/21/75 52/18/52
f 9/5/9 52/18/52 76/17/76 39/2/39
f 10/132/10 28/142/28 83/143/83 60/134/60
f 10/132/10 60/134/60 84/125/84 40/126/40
f 11/43/11 29/61/29 96/60/96 73/44/73
f 11/43/11 73/44/73 97/26/97 41/29/41
f 12/32/12 30/16/30 76/17/76 53/33/53
f 12/32/12 53/33/53 77/48/77 42/47/42
f 13/85/13 31/82/31 88/89/88 65/90/65
f 13/85/13 65/90/65 89/91/89 43/86/43
f 14/65/14 32/58/32 77/48/77 54/49/54
f 14/65/14 54/49/54 78/50/78 44/66/44
f 15/45/15 33/30/33 80/25/80 57/42/57
f 15/45/15 57/42/57 81/57/81 45/63/45
f 16/112/16 34/114/34 84/125/84 61/122/61
f 16/112/16 61/122/61 85/119/85 46/108/46
f 17/3/17 35/8/35 97/26/97 74/20/74
f 17/3/17 74/20/74 98/22/98 47/6/47
f 18/123/18 36/137/36 92/135/92 69/124/69
f 18/123/18 69/124/69 93/115/93 48/113/48
f 19/97/19 37/92/37 89/91/89 66/96/66
f 19/97/19 66/96/66 90/101/90 49/102/49
f 20/78/20 38/77/38 81/57/81 58/56/58
f 20/78/20 58/56/58 82/55/82 50/74/50
f 21/34/21 52/18/52 75/21/75 51/35/51
f 21/34/21 53/33/53 76/17/76 52/18/52
f 21/34/21 54/49/54 77/48/77 53/33/53
f 22/37/22 56/24/56 79/27/79 55/40/55
f 22/37/22 57/42/57 80/25/80 56/24/56
f 22/37/22 58/56/58 81/57/81 57/42/57
f 23/133/23 60/134/60 83/143/83 59/144/59
f 23/133/23 61/122/61 84/125/84 60/134/60
f 23/133/23 62/131/62 85/119/85 61/122/61
f 24/95/24 64/94/64 87/99/87 63/100/63
f 24/95/24 65/90/65 88/89/88 64/94/64
f 24/95/24 66/96/66 89/91/89 65/90/65
f 25/127/25 68/136/68 91/138/91 67/129/67
f 25/127/25 69/124/69 92/135/92 68/136/68
f 25/127/25 70/117/70 93/115/93 69/124/69
f 26/41/26 72/59/72 95/54/95 71/39/71
f 26/41/26 73/44/73 96/60/96 72/59/72
f 26/41/26 74/20/74 97/26/97 73/44/73
f 27/76/27 96/60/96 29/61/29 1/72/1
f 30/88/30 88/89/88 31/82/31 2/84/2
f 31/52/31 95/54/95 39/70/39 2/67/2
f 32/9/32 80/25/80 33/30/33 3/14/3
f 33/30/33 87/19/87 42/1/42 3/14/3
f 34/69/34 79/79/79 44/66/44 4/64/4
f 35/148/35 92/135/92 36/137/36 5/145/5
f 36/139/36 86/141/86 41/154/41 5/151/5
f 37/140/37 91/138/91 47/150/47 6/146/6
f 38/109/38 94/103/94 49/102/49 7/104/7
f 39/70/39 95/54/95 72/59/72 9/75/9
f 40/51/40 78/50/78 51/35/51 10/36/10
f 41/154/41 86/141/86 59/144/59 11/153/11
f 42/98/42 87/99/87 64/94/64 12/93/12
f 43/23/43 98/22/98 71/39/71 13/38/13
f 44/10/44 79/27/79 56/24/56 14/7/14
f 45/106/45 90/101/90 63/100/63 15/107/15
f 46/62/46 82/55/82 55/40/55 16/46/16
f 46/62/46 85/68/85 48/80/48 8/71/8
f 47/150/47 91/138/91 68/136/68 17/147/17
f 48/116/48 85/119/85 62/131/62 18/128/18
f 48/80/48 93/81/93 50/74/50 8/71/8
f 49/121/49 94/120/94 67/129/67 19/130/19
f 50/74/50 93/81/93 70/83/70 20/78/20
f 51/35/51 75/21/75 28/28/28 10/36/10
f 51/35/51 78/50/78 54/49/54 21/34/21
f 55/40/55 79/27/79 34/31/34 16/46/16
f 55/40/55 82/55/82 58/56/58 22/37/22
f 56/24/56 80/25/80 32/9/32 14/7/14
f 59/144/59 83/143/83 29/152/29 11/153/11
f 59/144/59 86/141/86 62/131/62 23/133/23
f 62/131/62 86/141/86 36/139/36 18/128/18
f 63/100/63 87/99/87 33/105/33 15/107/15
f 63/100/63 90/101/90 66/96/66 24/95/24
f 64/94/64 88/89/88 30/88/30 12/93/12
f 67/129/67 91/138/91 37/140/37 19/130/19
f 67/129/67 94/120/94 70/117/70 25/127/25
f 68/136/68 92/135/92 35/148/35 17/147/17
f 70/117/70 94/120/94 38/111/38 20/110/20
f 71/39/71 95/54/95 31/52/31 13/38/13
f 71/39/71 98/22/98 74/20/74 26/41/26
f 72/59/72 96/60/96 27/76/27 9/75/9
