# Exported from Wings 3D 1.0.2
mtllib model.mtl
o cube1
#8 vertices, 6 faces
v -10.00000000 -40.74019200 10.00000000
v -10.00000000 40.74019200 10.00000000
v 10.00000000 40.74019200 10.00000000
v 10.00000000 -40.74019200 10.00000000
v -10.00000000 -40.74019200 -10.00000000
v -10.00000000 40.74019200 -10.00000000
v 10.00000000 40.74019200 -10.00000000
v 10.00000000 -40.74019200 -10.00000000
vt 0.0000000e+0 0.0000000e+0
vt 1.6158646e-4 0.0000000e+0
vt 1.0917932e-3 0.0000000e+0
vt 1.1093797e-3 0.0000000e+0
vt 1.3351729e-3 0.74758057
vt 1.3351729e-3 0.99769536
vt 1.7685063e-3 0.74735511
vt 1.7685063e-3 0.99746990
vt 3.0333333e-3 0.74722222
vt 3.1949198e-3 0.74722222
vt 4.1251266e-3 0.74722222
vt 4.1427130e-3 0.74722222
vt 0.99631479 0.0000000e+0
vt 0.99647638 0.0000000e+0
vt 0.99740659 0.0000000e+0
vt 0.99742417 0.0000000e+0
vt 0.99909397 0.74758057
vt 0.99909397 0.99769536
vt 0.99934813 0.74722222
vt 0.99950971 0.74722222
vt 0.99952730 0.74735511
vt 0.99952730 0.99746990
vt 1.00043992 0.74722222
vt 1.00045751 0.74722222
vn -0.57735027 -0.57735027 0.57735027
vn -0.57735027 0.57735027 0.57735027
vn 0.57735027 0.57735027 0.57735027
vn 0.57735027 -0.57735027 0.57735027
vn -0.57735027 -0.57735027 -0.57735027
vn -0.57735027 0.57735027 -0.57735027
vn 0.57735027 0.57735027 -0.57735027
vn 0.57735027 -0.57735027 -0.57735027
g cube1_cube1_auv
usemtl cube1_auv
f 1/3/1 4/15/4 3/23/3 2/11/2
f 1/21/1 5/22/5 8/8/8 4/7/4
f 2/24/2 6/12/6 5/4/5 1/16/1
f 3/17/3 7/18/7 6/6/6 2/5/2
f 4/2/4 8/14/8 7/20/7 3/10/3
f 6/19/6 7/9/7 8/1/8 5/13/5
